<?xml version="1.0" ?><!DOCTYPE svg  PUBLIC '-//W3C//DTD SVG 1.1//EN'  'http://www.w3.org/Graphics/SVG/1.1/DTD/svg11.dtd'><svg height="176.389mm" style="shape-rendering:geometricPrecision; text-rendering:geometricPrecision; image-rendering:optimizeQuality; fill-rule:evenodd; clip-rule:evenodd" version="1.1" viewBox="0 0 17639 17639" width="176.389mm" xml:space="preserve" xmlns="http://www.w3.org/2000/svg" xmlns:xlink="http://www.w3.org/1999/xlink"><defs><style type="text/css">
   <![CDATA[
    .fil1 {fill:#260600}
    .fil0 {fill:#FF4A19}
    .fil2 {fill:#FF4A19}
   ]]>
  </style></defs><g id="Layer_x0020_1"><rect class="fil0" height="15381" width="15476" x="1082" y="1129"/><rect class="fil1" height="12803" width="12882" x="2379" y="2418"/><g id="_1927313792"><path class="fil2" d="M7741 10633l501 1659c26,98 77,122 146,121l1283 0c99,0 106,-29 91,-95l-2119 -7068c-4,-13 -14,-23 -34,-22l-1777 -5c-70,0 -71,36 -65,104 22,246 10,384 -42,577l-1876 6417c-20,61 -15,92 65,93l1211 -1c128,-5 135,-39 157,-103l420 -1677 2039 0zm-259 -1290l-1471 0 713 -2884 758 2884z"/><path class="fil0" d="M10133 12354l0 -53 0 -11 0 -147 9 -3816 -6 -136 -3 -75 -44 -212c9,-4 18,-7 27,-11 17,-6 34,-12 51,-19 1493,-551 3715,-770 3631,1427 -1,13 0,37 -1,50l0 2717 0 214 0 20c-3,65 -39,113 -128,114l-20 0 -820 0c-72,1 -134,-7 -136,-110 0,-1 0,-1 0,-2 0,-48 0,-109 0,-181 0,-802 1,-2982 -1,-3022 -25,-700 -917,-778 -1472,-551l-17 3605 0 151c-2,67 -9,108 -128,109l-867 0c-40,0 -77,1 -75,-61z"/></g></g></svg>