<?xml version="1.0" encoding="UTF-8"?><svg id="logo_SVG" xmlns="http://www.w3.org/2000/svg" viewBox="0 0 523.18 369.64"><defs><style>.cls-1{stroke-width:15px;}.cls-1,.cls-2,.cls-3,.cls-4{fill:none;stroke:#000;stroke-miterlimit:10;}.cls-2{stroke-width:25px;}.cls-3{stroke-width:14px;}.cls-4{stroke-width:5px;}</style></defs><path class="cls-2" d="M211.8,33.66c-135.69,47.09-131.34,232.84,2.81,278.26"/><circle class="cls-1" cx="259.32" cy="33.42" r="25.92"/><circle class="cls-1" cx="486" cy="174.03" r="29.68"/><circle class="cls-1" cx="37.18" cy="173.03" r="29.68"/><path class="cls-1" d="M275.98,308.18c7.63,5.37,12.61,14.25,12.61,24.28,0,16.39-13.29,29.68-29.68,29.68s-29.68-13.29-29.68-29.68c0-10.52,5.47-19.76,13.72-25.03"/><circle class="cls-1" cx="49.66" cy="57.7" r="18.89"/><circle class="cls-1" cx="174.99" cy="117.88" r="20.54"/><circle class="cls-1" cx="341.23" cy="117.42" r="21"/><circle class="cls-1" cx="342.3" cy="219.87" r="19.94"/><circle class="cls-1" cx="174.96" cy="220.23" r="19.57"/><circle class="cls-1" cx="461.03" cy="283.51" r="19.2"/><circle class="cls-1" cx="258.91" cy="255.86" r="18.81"/><circle class="cls-1" cx="259.2" cy="163.73" r="40.32"/><line class="cls-1" x1="66.86" y1="175.68" x2="123.77" y2="173.03"/><line class="cls-1" x1="70.53" y1="67" x2="126.35" y2="119.72"/><line class="cls-1" x1="455.33" y1="175.68" x2="393.28" y2="174.36"/><line class="cls-3" x1="385.47" y1="234.94" x2="438.69" y2="273.27"/><line class="cls-1" x1="193.8" y1="207.05" x2="220.27" y2="188.73"/><line class="cls-1" x1="258.56" y1="63.33" x2="258.56" y2="101.77"/><line class="cls-1" x1="324.59" y1="210.72" x2="306.23" y2="194.49"/><line class="cls-1" x1="321.24" y1="126.41" x2="307.23" y2="136.07"/><line class="cls-1" x1="195.2" y1="126.41" x2="209.64" y2="136.07"/><path class="cls-1" d="M258.51,313.57c0-14.63.06-34.9.06-34.9"/><path class="cls-4" d="M258.56,311.92c-.05-.17-.06-4.44-.06-9.87"/><line class="cls-1" x1="258.56" y1="232.36" x2="258.51" y2="223.03"/><path class="cls-2" d="M303.8,33.23c137.01,47.55,132.69,232.38-2.81,278.26"/></svg>